<?xml version="1.0" encoding="utf-8"?>
<!-- Generated by IcoMoon.io -->
<!DOCTYPE svg PUBLIC "-//W3C//DTD SVG 1.1//EN" "http://www.w3.org/Graphics/SVG/1.1/DTD/svg11.dtd">
<svg version="1.1" xmlns="http://www.w3.org/2000/svg" xmlns:xlink="http://www.w3.org/1999/xlink" width="1024" height="1024" viewBox="0 0 1024 1024">
<g id="icomoon-ignore">
</g>
<path d="M495.532 959.26c-9.113 0-17.793-3.885-23.864-10.681l-232.019-259.721c-2.22-2.485-3.999-5.252-5.321-8.192-27.947-47.029-42.695-100.476-42.695-154.854 0-81.175 31.611-157.491 89.010-214.89s133.715-89.010 214.889-89.010c81.175 0 157.491 31.611 214.891 89.010s89.011 133.715 89.011 214.89c0 54.379-14.751 107.828-42.697 154.856-1.322 2.939-3.101 5.706-5.319 8.189l-232.021 259.722c-6.072 6.796-14.752 10.681-23.865 10.681zM290.17 649.345l205.362 229.882 205.365-229.883c22.601-37.469 34.536-80.143 34.536-123.532 0-64.080-24.954-124.324-70.266-169.635s-105.556-70.265-169.636-70.265-124.324 24.954-169.635 70.265c-45.311 45.311-70.265 105.556-70.265 169.635 0.002 43.389 11.939 86.065 34.539 123.533zM494.952 607.166c-61.436 0-111.417-49.991-111.417-111.439 0-61.436 49.981-111.417 111.417-111.417 61.435 0 111.417 49.982 111.417 111.417-0.001 61.448-49.982 111.439-111.417 111.439zM494.952 448.309c-26.146 0-47.417 21.271-47.417 47.417 0 26.158 21.271 47.439 47.417 47.439s47.417-21.281 47.417-47.439c-0.001-26.146-21.271-47.417-47.417-47.417z"></path>
</svg>
